<?xml version="1.0" encoding="UTF-8" standalone="no"?>
<!DOCTYPE svg PUBLIC "-//W3C//DTD SVG 1.1//EN"
 "http://www.w3.org/Graphics/SVG/1.1/DTD/svg11.dtd">
<!-- Generated by graphviz version 2.42.4 (0)
 -->
<!-- Title: G Pages: 1 -->
<svg width="220pt" height="497pt"
 viewBox="0.00 0.00 219.56 496.56" xmlns="http://www.w3.org/2000/svg" xmlns:xlink="http://www.w3.org/1999/xlink">
<g id="graph0" class="graph" transform="scale(1 1) rotate(0) translate(17.28 479.28)">
<title>G</title>
<polygon fill="#ffffff" stroke="transparent" points="-17.28,17.28 -17.28,-479.28 202.28,-479.28 202.28,17.28 -17.28,17.28"/>
<text text-anchor="middle" x="92.5" y="-442.8" font-family="Noto Sans CJK SC" font-size="19.00" fill="#102b46">配置有不同生命周期</text>
<!-- a -->
<g id="node1" class="node">
<title>a</title>
<path fill="#edf4f9" stroke="#a7bfd3" stroke-width="1.2" d="M165.5,-433C165.5,-433 19.5,-433 19.5,-433 13.5,-433 7.5,-427 7.5,-421 7.5,-421 7.5,-393 7.5,-393 7.5,-387 13.5,-381 19.5,-381 19.5,-381 165.5,-381 165.5,-381 171.5,-381 177.5,-387 177.5,-393 177.5,-393 177.5,-421 177.5,-421 177.5,-427 171.5,-433 165.5,-433"/>
<text text-anchor="middle" x="92.5" y="-412" font-family="Noto Sans CJK SC" font-size="15.00" fill="#17324d">服务进程环境</text>
<text text-anchor="middle" x="92.5" y="-395" font-family="Noto Sans CJK SC" font-size="15.00" fill="#17324d">目录 · origin · 秘密</text>
</g>
<!-- b -->
<g id="node2" class="node">
<title>b</title>
<path fill="#edf4f9" stroke="#a7bfd3" stroke-width="1.2" d="M146.5,-335C146.5,-335 38.5,-335 38.5,-335 32.5,-335 26.5,-329 26.5,-323 26.5,-323 26.5,-295 26.5,-295 26.5,-289 32.5,-283 38.5,-283 38.5,-283 146.5,-283 146.5,-283 152.5,-283 158.5,-289 158.5,-295 158.5,-295 158.5,-323 158.5,-323 158.5,-329 152.5,-335 146.5,-335"/>
<text text-anchor="middle" x="92.5" y="-314" font-family="Noto Sans CJK SC" font-size="15.00" fill="#17324d">首次 seed</text>
<text text-anchor="middle" x="92.5" y="-297" font-family="Noto Sans CJK SC" font-size="15.00" fill="#17324d">角色与执行限额</text>
</g>
<!-- a&#45;&gt;b -->
<g id="edge1" class="edge">
<title>a&#45;&gt;b</title>
<path fill="none" stroke="#617c94" stroke-width="1.2" d="M92.5,-380.78C92.5,-369.09 92.5,-355.06 92.5,-342.59"/>
<polygon fill="#617c94" stroke="#617c94" stroke-width="1.2" points="95.13,-342.55 92.5,-335.05 89.88,-342.55 95.13,-342.55"/>
<text text-anchor="middle" x="126.5" y="-355.2" font-family="Noto Sans CJK SC" font-size="11.00" fill="#4a6379">仅未初始化时</text>
</g>
<!-- c -->
<g id="node3" class="node">
<title>c</title>
<path fill="#edf4f9" stroke="#a7bfd3" stroke-width="1.2" d="M169,-248C169,-248 16,-248 16,-248 10,-248 4,-242 4,-236 4,-236 4,-208 4,-208 4,-202 10,-196 16,-196 16,-196 169,-196 169,-196 175,-196 181,-202 181,-208 181,-208 181,-236 181,-236 181,-242 175,-248 169,-248"/>
<text text-anchor="middle" x="92.5" y="-227" font-family="Noto Sans CJK SC" font-size="15.00" fill="#17324d">数据库版本化运行配置</text>
<text text-anchor="middle" x="92.5" y="-210" font-family="Noto Sans CJK SC" font-size="15.00" fill="#17324d">管理员保存 revision</text>
</g>
<!-- b&#45;&gt;c -->
<g id="edge2" class="edge">
<title>b&#45;&gt;c</title>
<path fill="none" stroke="#617c94" stroke-width="1.2" d="M92.5,-282.96C92.5,-274.47 92.5,-264.87 92.5,-255.87"/>
<polygon fill="#617c94" stroke="#617c94" stroke-width="1.2" points="95.13,-255.66 92.5,-248.16 89.88,-255.66 95.13,-255.66"/>
</g>
<!-- d -->
<g id="node4" class="node">
<title>d</title>
<path fill="#edf4f9" stroke="#a7bfd3" stroke-width="1.2" d="M160,-150C160,-150 25,-150 25,-150 19,-150 13,-144 13,-138 13,-138 13,-110 13,-110 13,-104 19,-98 25,-98 25,-98 160,-98 160,-98 166,-98 172,-104 172,-110 172,-110 172,-138 172,-138 172,-144 166,-150 160,-150"/>
<text text-anchor="middle" x="92.5" y="-129" font-family="Noto Sans CJK SC" font-size="15.00" fill="#17324d">单次运行快照</text>
<text text-anchor="middle" x="92.5" y="-112" font-family="Noto Sans CJK SC" font-size="15.00" fill="#17324d">合同 · 模型 · 授权</text>
</g>
<!-- c&#45;&gt;d -->
<g id="edge3" class="edge">
<title>c&#45;&gt;d</title>
<path fill="none" stroke="#617c94" stroke-width="1.2" d="M92.5,-195.78C92.5,-184.09 92.5,-170.06 92.5,-157.59"/>
<polygon fill="#617c94" stroke="#617c94" stroke-width="1.2" points="95.13,-157.55 92.5,-150.05 89.88,-157.55 95.13,-157.55"/>
<text text-anchor="middle" x="129" y="-170.2" font-family="Noto Sans CJK SC" font-size="11.00" fill="#4a6379">创建/合法更新</text>
</g>
<!-- e -->
<g id="node5" class="node">
<title>e</title>
<path fill="#edf4f9" stroke="#a7bfd3" stroke-width="1.2" d="M161.5,-52C161.5,-52 23.5,-52 23.5,-52 17.5,-52 11.5,-46 11.5,-40 11.5,-40 11.5,-12 11.5,-12 11.5,-6 17.5,0 23.5,0 23.5,0 161.5,0 161.5,0 167.5,0 173.5,-6 173.5,-12 173.5,-12 173.5,-40 173.5,-40 173.5,-46 167.5,-52 161.5,-52"/>
<text text-anchor="middle" x="92.5" y="-31" font-family="Noto Sans CJK SC" font-size="15.00" fill="#17324d">继续任务</text>
<text text-anchor="middle" x="92.5" y="-14" font-family="Noto Sans CJK SC" font-size="15.00" fill="#17324d">核对原边界与新指令</text>
</g>
<!-- d&#45;&gt;e -->
<g id="edge4" class="edge">
<title>d&#45;&gt;e</title>
<path fill="none" stroke="#617c94" stroke-width="1.2" d="M92.5,-97.78C92.5,-86.09 92.5,-72.06 92.5,-59.59"/>
<polygon fill="#617c94" stroke="#617c94" stroke-width="1.2" points="95.13,-59.55 92.5,-52.05 89.88,-59.55 95.13,-59.55"/>
<text text-anchor="middle" x="126.5" y="-72.2" font-family="Noto Sans CJK SC" font-size="11.00" fill="#4a6379">恢复时再核对</text>
</g>
</g>
</svg>
