<?xml version="1.0" encoding="UTF-8" standalone="no"?>
<!DOCTYPE svg PUBLIC "-//W3C//DTD SVG 1.1//EN"
 "http://www.w3.org/Graphics/SVG/1.1/DTD/svg11.dtd">
<!-- Generated by graphviz version 2.42.4 (0)
 -->
<!-- Title: G Pages: 1 -->
<svg width="582pt" height="270pt"
 viewBox="0.00 0.00 581.56 269.56" xmlns="http://www.w3.org/2000/svg" xmlns:xlink="http://www.w3.org/1999/xlink">
<g id="graph0" class="graph" transform="scale(1 1) rotate(0) translate(17.28 252.28)">
<title>G</title>
<polygon fill="#ffffff" stroke="transparent" points="-17.28,17.28 -17.28,-252.28 564.28,-252.28 564.28,17.28 -17.28,17.28"/>
<text text-anchor="middle" x="273.5" y="-215.8" font-family="Noto Sans CJK SC" font-size="19.00" fill="#102b46">中断现场三条处理路径</text>
<!-- a -->
<g id="node1" class="node">
<title>a</title>
<path fill="#edf4f9" stroke="#a7bfd3" stroke-width="1.2" d="M372.5,-206C372.5,-206 216.5,-206 216.5,-206 210.5,-206 204.5,-200 204.5,-194 204.5,-194 204.5,-166 204.5,-166 204.5,-160 210.5,-154 216.5,-154 216.5,-154 372.5,-154 372.5,-154 378.5,-154 384.5,-160 384.5,-166 384.5,-166 384.5,-194 384.5,-194 384.5,-200 378.5,-206 372.5,-206"/>
<text text-anchor="middle" x="294.5" y="-185" font-family="Noto Sans CJK SC" font-size="15.00" fill="#17324d">运行中断</text>
<text text-anchor="middle" x="294.5" y="-168" font-family="Noto Sans CJK SC" font-size="15.00" fill="#17324d">先保留 run ID 与检查点</text>
</g>
<!-- b -->
<g id="node2" class="node">
<title>b</title>
<path fill="#edf4f9" stroke="#a7bfd3" stroke-width="1.2" d="M177,-121C177,-121 12,-121 12,-121 6,-121 0,-115 0,-109 0,-109 0,-97 0,-97 0,-91 6,-85 12,-85 12,-85 177,-85 177,-85 183,-85 189,-91 189,-97 189,-97 189,-109 189,-109 189,-115 183,-121 177,-121"/>
<text text-anchor="middle" x="94.5" y="-99.5" font-family="Noto Sans CJK SC" font-size="15.00" fill="#17324d">仍有写者 / 无法证实退出</text>
</g>
<!-- a&#45;&gt;b -->
<g id="edge1" class="edge">
<title>a&#45;&gt;b</title>
<path fill="none" stroke="#617c94" stroke-width="1.2" d="M227.62,-153.92C201.37,-144.08 171.69,-132.95 147.02,-123.7"/>
<polygon fill="#617c94" stroke="#617c94" stroke-width="1.2" points="147.81,-121.19 139.87,-121.01 145.97,-126.11 147.81,-121.19"/>
</g>
<!-- c -->
<g id="node3" class="node">
<title>c</title>
<path fill="#edf4f9" stroke="#a7bfd3" stroke-width="1.2" d="M363.5,-121C363.5,-121 225.5,-121 225.5,-121 219.5,-121 213.5,-115 213.5,-109 213.5,-109 213.5,-97 213.5,-97 213.5,-91 219.5,-85 225.5,-85 225.5,-85 363.5,-85 363.5,-85 369.5,-85 375.5,-91 375.5,-97 375.5,-97 375.5,-109 375.5,-109 375.5,-115 369.5,-121 363.5,-121"/>
<text text-anchor="middle" x="294.5" y="-99.5" font-family="Noto Sans CJK SC" font-size="15.00" fill="#17324d">本地现场可证明一致</text>
</g>
<!-- a&#45;&gt;c -->
<g id="edge2" class="edge">
<title>a&#45;&gt;c</title>
<path fill="none" stroke="#617c94" stroke-width="1.2" d="M294.5,-153.61C294.5,-145.58 294.5,-136.71 294.5,-128.73"/>
<polygon fill="#617c94" stroke="#617c94" stroke-width="1.2" points="297.13,-128.6 294.5,-121.1 291.88,-128.6 297.13,-128.6"/>
</g>
<!-- d -->
<g id="node4" class="node">
<title>d</title>
<path fill="#edf4f9" stroke="#a7bfd3" stroke-width="1.2" d="M535,-121C535,-121 412,-121 412,-121 406,-121 400,-115 400,-109 400,-109 400,-97 400,-97 400,-91 406,-85 412,-85 412,-85 535,-85 535,-85 541,-85 547,-91 547,-97 547,-97 547,-109 547,-109 547,-115 541,-121 535,-121"/>
<text text-anchor="middle" x="473.5" y="-99.5" font-family="Noto Sans CJK SC" font-size="15.00" fill="#17324d">外部发布结果不明</text>
</g>
<!-- a&#45;&gt;d -->
<g id="edge3" class="edge">
<title>a&#45;&gt;d</title>
<path fill="none" stroke="#617c94" stroke-width="1.2" d="M354.6,-153.82C377.79,-144.1 403.94,-133.15 425.8,-123.99"/>
<polygon fill="#617c94" stroke="#617c94" stroke-width="1.2" points="426.83,-126.4 432.73,-121.08 424.8,-121.56 426.83,-126.4"/>
</g>
<!-- e -->
<g id="node5" class="node">
<title>e</title>
<path fill="#edf4f9" stroke="#a7bfd3" stroke-width="1.2" d="M163.5,-52C163.5,-52 25.5,-52 25.5,-52 19.5,-52 13.5,-46 13.5,-40 13.5,-40 13.5,-12 13.5,-12 13.5,-6 19.5,0 25.5,0 25.5,0 163.5,0 163.5,0 169.5,0 175.5,-6 175.5,-12 175.5,-12 175.5,-40 175.5,-40 175.5,-46 169.5,-52 163.5,-52"/>
<text text-anchor="middle" x="94.5" y="-31" font-family="Noto Sans CJK SC" font-size="15.00" fill="#17324d">阻止第二个写者</text>
<text text-anchor="middle" x="94.5" y="-14" font-family="Noto Sans CJK SC" font-size="15.00" fill="#17324d">核对活动锁与进程组</text>
</g>
<!-- b&#45;&gt;e -->
<g id="edge4" class="edge">
<title>b&#45;&gt;e</title>
<path fill="none" stroke="#617c94" stroke-width="1.2" d="M94.5,-84.98C94.5,-77.49 94.5,-68.43 94.5,-59.72"/>
<polygon fill="#617c94" stroke="#617c94" stroke-width="1.2" points="97.13,-59.71 94.5,-52.21 91.88,-59.71 97.13,-59.71"/>
</g>
<!-- f -->
<g id="node6" class="node">
<title>f</title>
<path fill="#edf4f9" stroke="#a7bfd3" stroke-width="1.2" d="M363.5,-52C363.5,-52 225.5,-52 225.5,-52 219.5,-52 213.5,-46 213.5,-40 213.5,-40 213.5,-12 213.5,-12 213.5,-6 219.5,0 225.5,0 225.5,0 363.5,0 363.5,0 369.5,0 375.5,-6 375.5,-12 375.5,-12 375.5,-40 375.5,-40 375.5,-46 369.5,-52 363.5,-52"/>
<text text-anchor="middle" x="294.5" y="-31" font-family="Noto Sans CJK SC" font-size="15.00" fill="#17324d">按恢复协议继续</text>
<text text-anchor="middle" x="294.5" y="-14" font-family="Noto Sans CJK SC" font-size="15.00" fill="#17324d">补齐检查与独立验收</text>
</g>
<!-- c&#45;&gt;f -->
<g id="edge5" class="edge">
<title>c&#45;&gt;f</title>
<path fill="none" stroke="#617c94" stroke-width="1.2" d="M294.5,-84.98C294.5,-77.49 294.5,-68.43 294.5,-59.72"/>
<polygon fill="#617c94" stroke="#617c94" stroke-width="1.2" points="297.13,-59.71 294.5,-52.21 291.88,-59.71 297.13,-59.71"/>
</g>
<!-- g -->
<g id="node7" class="node">
<title>g</title>
<path fill="#edf4f9" stroke="#a7bfd3" stroke-width="1.2" d="M527.5,-52C527.5,-52 419.5,-52 419.5,-52 413.5,-52 407.5,-46 407.5,-40 407.5,-40 407.5,-12 407.5,-12 407.5,-6 413.5,0 419.5,0 419.5,0 527.5,0 527.5,0 533.5,0 539.5,-6 539.5,-12 539.5,-12 539.5,-40 539.5,-40 539.5,-46 533.5,-52 527.5,-52"/>
<text text-anchor="middle" x="473.5" y="-31" font-family="Noto Sans CJK SC" font-size="15.00" fill="#17324d">查远端回执</text>
<text text-anchor="middle" x="473.5" y="-14" font-family="Noto Sans CJK SC" font-size="15.00" fill="#17324d">明确授权后处理</text>
</g>
<!-- d&#45;&gt;g -->
<g id="edge6" class="edge">
<title>d&#45;&gt;g</title>
<path fill="none" stroke="#617c94" stroke-width="1.2" d="M473.5,-84.98C473.5,-77.49 473.5,-68.43 473.5,-59.72"/>
<polygon fill="#617c94" stroke="#617c94" stroke-width="1.2" points="476.13,-59.71 473.5,-52.21 470.88,-59.71 476.13,-59.71"/>
</g>
</g>
</svg>
