<?xml version="1.0" encoding="UTF-8" standalone="no"?>
<!DOCTYPE svg PUBLIC "-//W3C//DTD SVG 1.1//EN"
 "http://www.w3.org/Graphics/SVG/1.1/DTD/svg11.dtd">
<!-- Generated by graphviz version 2.42.4 (0)
 -->
<!-- Title: G Pages: 1 -->
<svg width="760pt" height="286pt"
 viewBox="0.00 0.00 760.06 285.56" xmlns="http://www.w3.org/2000/svg" xmlns:xlink="http://www.w3.org/1999/xlink">
<g id="graph0" class="graph" transform="scale(1 1) rotate(0) translate(17.28 268.28)">
<title>G</title>
<polygon fill="#ffffff" stroke="transparent" points="-17.28,17.28 -17.28,-268.28 742.78,-268.28 742.78,17.28 -17.28,17.28"/>
<text text-anchor="middle" x="362.75" y="-231.8" font-family="Noto Sans CJK SC" font-size="19.00" fill="#102b46">以同一次运行串联现场</text>
<!-- a -->
<g id="node1" class="node">
<title>a</title>
<path fill="#edf4f9" stroke="#a7bfd3" stroke-width="1.2" d="M433,-222C433,-222 298,-222 298,-222 292,-222 286,-216 286,-210 286,-210 286,-182 286,-182 286,-176 292,-170 298,-170 298,-170 433,-170 433,-170 439,-170 445,-176 445,-182 445,-182 445,-210 445,-210 445,-216 439,-222 433,-222"/>
<text text-anchor="middle" x="365.5" y="-201" font-family="Noto Sans CJK SC" font-size="15.00" fill="#17324d">run ID + UTC 窗口</text>
<text text-anchor="middle" x="365.5" y="-184" font-family="Noto Sans CJK SC" font-size="15.00" fill="#17324d">提交 + 配置 revision</text>
</g>
<!-- b -->
<g id="node2" class="node">
<title>b</title>
<path fill="#edf4f9" stroke="#a7bfd3" stroke-width="1.2" d="M147,-137C147,-137 12,-137 12,-137 6,-137 0,-131 0,-125 0,-125 0,-97 0,-97 0,-91 6,-85 12,-85 12,-85 147,-85 147,-85 153,-85 159,-91 159,-97 159,-97 159,-125 159,-125 159,-131 153,-137 147,-137"/>
<text text-anchor="middle" x="79.5" y="-116" font-family="Noto Sans CJK SC" font-size="15.00" fill="#17324d">系统日志</text>
<text text-anchor="middle" x="79.5" y="-99" font-family="Noto Sans CJK SC" font-size="15.00" fill="#17324d">服务 · 端口 · 资源</text>
</g>
<!-- a&#45;&gt;b -->
<g id="edge1" class="edge">
<title>a&#45;&gt;b</title>
<path fill="none" stroke="#617c94" stroke-width="1.2" d="M285.83,-171.88C248.8,-161.13 204.66,-148.32 166.73,-137.32"/>
<polygon fill="#617c94" stroke="#617c94" stroke-width="1.2" points="167.17,-134.71 159.24,-135.14 165.71,-139.75 167.17,-134.71"/>
</g>
<!-- c -->
<g id="node3" class="node">
<title>c</title>
<path fill="#edf4f9" stroke="#a7bfd3" stroke-width="1.2" d="M345.5,-137C345.5,-137 195.5,-137 195.5,-137 189.5,-137 183.5,-131 183.5,-125 183.5,-125 183.5,-97 183.5,-97 183.5,-91 189.5,-85 195.5,-85 195.5,-85 345.5,-85 345.5,-85 351.5,-85 357.5,-91 357.5,-97 357.5,-97 357.5,-125 357.5,-125 357.5,-131 351.5,-137 345.5,-137"/>
<text text-anchor="middle" x="270.5" y="-116" font-family="Noto Sans CJK SC" font-size="15.00" fill="#17324d">持久事件</text>
<text text-anchor="middle" x="270.5" y="-99" font-family="Noto Sans CJK SC" font-size="15.00" fill="#17324d">队列 · 检查点 · 调用</text>
</g>
<!-- a&#45;&gt;c -->
<g id="edge2" class="edge">
<title>a&#45;&gt;c</title>
<path fill="none" stroke="#617c94" stroke-width="1.2" d="M336.74,-169.87C326.69,-161.1 315.32,-151.16 304.86,-142.02"/>
<polygon fill="#617c94" stroke="#617c94" stroke-width="1.2" points="306.54,-140 299.16,-137.04 303.08,-143.95 306.54,-140"/>
</g>
<!-- d -->
<g id="node4" class="node">
<title>d</title>
<path fill="#edf4f9" stroke="#a7bfd3" stroke-width="1.2" d="M529,-137C529,-137 394,-137 394,-137 388,-137 382,-131 382,-125 382,-125 382,-97 382,-97 382,-91 388,-85 394,-85 394,-85 529,-85 529,-85 535,-85 541,-91 541,-97 541,-97 541,-125 541,-125 541,-131 535,-137 529,-137"/>
<text text-anchor="middle" x="461.5" y="-116" font-family="Noto Sans CJK SC" font-size="15.00" fill="#17324d">结果证据</text>
<text text-anchor="middle" x="461.5" y="-99" font-family="Noto Sans CJK SC" font-size="15.00" fill="#17324d">检查 · 验收 · 提交</text>
</g>
<!-- a&#45;&gt;d -->
<g id="edge3" class="edge">
<title>a&#45;&gt;d</title>
<path fill="none" stroke="#617c94" stroke-width="1.2" d="M394.56,-169.87C404.71,-161.1 416.21,-151.16 426.78,-142.02"/>
<polygon fill="#617c94" stroke="#617c94" stroke-width="1.2" points="428.58,-143.93 432.54,-137.04 425.14,-139.96 428.58,-143.93"/>
</g>
<!-- e -->
<g id="node5" class="node">
<title>e</title>
<path fill="#edf4f9" stroke="#a7bfd3" stroke-width="1.2" d="M713.5,-137C713.5,-137 577.5,-137 577.5,-137 571.5,-137 565.5,-131 565.5,-125 565.5,-125 565.5,-97 565.5,-97 565.5,-91 571.5,-85 577.5,-85 577.5,-85 713.5,-85 713.5,-85 719.5,-85 725.5,-91 725.5,-97 725.5,-97 725.5,-125 725.5,-125 725.5,-131 719.5,-137 713.5,-137"/>
<text text-anchor="middle" x="645.5" y="-116" font-family="Noto Sans CJK SC" font-size="15.00" fill="#17324d">外部回执</text>
<text text-anchor="middle" x="645.5" y="-99" font-family="Noto Sans CJK SC" font-size="15.00" fill="#17324d">PR / 部署 / 其他动作</text>
</g>
<!-- a&#45;&gt;e -->
<g id="edge4" class="edge">
<title>a&#45;&gt;e</title>
<path fill="none" stroke="#617c94" stroke-width="1.2" d="M445.36,-171.33C480.37,-160.95 521.58,-148.73 557.47,-138.09"/>
<polygon fill="#617c94" stroke="#617c94" stroke-width="1.2" points="558.6,-140.5 565.05,-135.85 557.11,-135.46 558.6,-140.5"/>
</g>
<!-- f -->
<g id="node6" class="node">
<title>f</title>
<path fill="#edf4f9" stroke="#a7bfd3" stroke-width="1.2" d="M455.5,-52C455.5,-52 275.5,-52 275.5,-52 269.5,-52 263.5,-46 263.5,-40 263.5,-40 263.5,-12 263.5,-12 263.5,-6 269.5,0 275.5,0 275.5,0 455.5,0 455.5,0 461.5,0 467.5,-6 467.5,-12 467.5,-12 467.5,-40 467.5,-40 467.5,-46 461.5,-52 455.5,-52"/>
<text text-anchor="middle" x="365.5" y="-31" font-family="Noto Sans CJK SC" font-size="15.00" fill="#17324d">最小脱敏故障包</text>
<text text-anchor="middle" x="365.5" y="-14" font-family="Noto Sans CJK SC" font-size="15.00" fill="#17324d">事实 · 已做操作 · 下一步</text>
</g>
<!-- b&#45;&gt;f -->
<g id="edge5" class="edge">
<title>b&#45;&gt;f</title>
<path fill="none" stroke="#617c94" stroke-width="1.2" d="M159.17,-86.88C194.19,-76.72 235.56,-64.71 272.02,-54.13"/>
<polygon fill="#617c94" stroke="#617c94" stroke-width="1.2" points="272.78,-56.64 279.25,-52.03 271.31,-51.6 272.78,-56.64"/>
</g>
<!-- c&#45;&gt;f -->
<g id="edge6" class="edge">
<title>c&#45;&gt;f</title>
<path fill="none" stroke="#617c94" stroke-width="1.2" d="M299.26,-84.87C309.31,-76.1 320.68,-66.16 331.14,-57.02"/>
<polygon fill="#617c94" stroke="#617c94" stroke-width="1.2" points="332.92,-58.95 336.84,-52.04 329.46,-55 332.92,-58.95"/>
</g>
<!-- d&#45;&gt;f -->
<g id="edge7" class="edge">
<title>d&#45;&gt;f</title>
<path fill="none" stroke="#617c94" stroke-width="1.2" d="M432.44,-84.87C422.29,-76.1 410.79,-66.16 400.22,-57.02"/>
<polygon fill="#617c94" stroke="#617c94" stroke-width="1.2" points="401.86,-54.96 394.46,-52.04 398.42,-58.93 401.86,-54.96"/>
</g>
<!-- e&#45;&gt;f -->
<g id="edge8" class="edge">
<title>e&#45;&gt;f</title>
<path fill="none" stroke="#617c94" stroke-width="1.2" d="M565.26,-86.22C531.62,-76.24 492.31,-64.59 457.5,-54.27"/>
<polygon fill="#617c94" stroke="#617c94" stroke-width="1.2" points="458.08,-51.71 450.14,-52.09 456.59,-56.74 458.08,-51.71"/>
</g>
</g>
</svg>
