<?xml version="1.0" encoding="UTF-8" standalone="no"?>
<!DOCTYPE svg PUBLIC "-//W3C//DTD SVG 1.1//EN"
 "http://www.w3.org/Graphics/SVG/1.1/DTD/svg11.dtd">
<!-- Generated by graphviz version 2.42.4 (0)
 -->
<!-- Title: G Pages: 1 -->
<svg width="239pt" height="541pt"
 viewBox="0.00 0.00 238.56 540.56" xmlns="http://www.w3.org/2000/svg" xmlns:xlink="http://www.w3.org/1999/xlink">
<g id="graph0" class="graph" transform="scale(1 1) rotate(0) translate(17.28 523.28)">
<title>G</title>
<polygon fill="#ffffff" stroke="transparent" points="-17.28,17.28 -17.28,-523.28 221.28,-523.28 221.28,17.28 -17.28,17.28"/>
<text text-anchor="middle" x="102" y="-486.8" font-family="Noto Sans CJK SC" font-size="19.00" fill="#102b46">维护人员的第一条路线</text>
<!-- a -->
<g id="node1" class="node">
<title>a</title>
<path fill="#edf4f9" stroke="#a7bfd3" stroke-width="1.2" d="M177,-477C177,-477 27,-477 27,-477 21,-477 15,-471 15,-465 15,-465 15,-437 15,-437 15,-431 21,-425 27,-425 27,-425 177,-425 177,-425 183,-425 189,-431 189,-437 189,-437 189,-465 189,-465 189,-471 183,-477 177,-477"/>
<text text-anchor="middle" x="102" y="-456" font-family="Noto Sans CJK SC" font-size="15.00" fill="#17324d">确认现场</text>
<text text-anchor="middle" x="102" y="-439" font-family="Noto Sans CJK SC" font-size="15.00" fill="#17324d">版本 · 数据 · 负责人</text>
</g>
<!-- b -->
<g id="node2" class="node">
<title>b</title>
<path fill="#edf4f9" stroke="#a7bfd3" stroke-width="1.2" d="M141,-392C141,-392 63,-392 63,-392 57,-392 51,-386 51,-380 51,-380 51,-352 51,-352 51,-346 57,-340 63,-340 63,-340 141,-340 141,-340 147,-340 153,-346 153,-352 153,-352 153,-380 153,-380 153,-386 147,-392 141,-392"/>
<text text-anchor="middle" x="102" y="-371" font-family="Noto Sans CJK SC" font-size="15.00" fill="#17324d">分清环境</text>
<text text-anchor="middle" x="102" y="-354" font-family="Noto Sans CJK SC" font-size="15.00" fill="#17324d">演练与生产</text>
</g>
<!-- a&#45;&gt;b -->
<g id="edge1" class="edge">
<title>a&#45;&gt;b</title>
<path fill="none" stroke="#617c94" stroke-width="1.2" d="M102,-424.65C102,-416.84 102,-408.14 102,-399.9"/>
<polygon fill="#617c94" stroke="#617c94" stroke-width="1.2" points="104.63,-399.7 102,-392.2 99.38,-399.7 104.63,-399.7"/>
</g>
<!-- c -->
<g id="node3" class="node">
<title>c</title>
<path fill="#edf4f9" stroke="#a7bfd3" stroke-width="1.2" d="M160.5,-307C160.5,-307 43.5,-307 43.5,-307 37.5,-307 31.5,-301 31.5,-295 31.5,-295 31.5,-267 31.5,-267 31.5,-261 37.5,-255 43.5,-255 43.5,-255 160.5,-255 160.5,-255 166.5,-255 172.5,-261 172.5,-267 172.5,-267 172.5,-295 172.5,-295 172.5,-301 166.5,-307 160.5,-307"/>
<text text-anchor="middle" x="102" y="-286" font-family="Noto Sans CJK SC" font-size="15.00" fill="#17324d">判断症状</text>
<text text-anchor="middle" x="102" y="-269" font-family="Noto Sans CJK SC" font-size="15.00" fill="#17324d">页面 / 模型 / 任务</text>
</g>
<!-- b&#45;&gt;c -->
<g id="edge2" class="edge">
<title>b&#45;&gt;c</title>
<path fill="none" stroke="#617c94" stroke-width="1.2" d="M102,-339.65C102,-331.84 102,-323.14 102,-314.9"/>
<polygon fill="#617c94" stroke="#617c94" stroke-width="1.2" points="104.63,-314.7 102,-307.2 99.38,-314.7 104.63,-314.7"/>
</g>
<!-- d -->
<g id="node4" class="node">
<title>d</title>
<path fill="#edf4f9" stroke="#a7bfd3" stroke-width="1.2" d="M182.5,-222C182.5,-222 21.5,-222 21.5,-222 15.5,-222 9.5,-216 9.5,-210 9.5,-210 9.5,-182 9.5,-182 9.5,-176 15.5,-170 21.5,-170 21.5,-170 182.5,-170 182.5,-170 188.5,-170 194.5,-176 194.5,-182 194.5,-182 194.5,-210 194.5,-210 194.5,-216 188.5,-222 182.5,-222"/>
<text text-anchor="middle" x="102" y="-201" font-family="Noto Sans CJK SC" font-size="15.00" fill="#17324d">保留证据</text>
<text text-anchor="middle" x="102" y="-184" font-family="Noto Sans CJK SC" font-size="15.00" fill="#17324d">run ID · 检查点 · SHA</text>
</g>
<!-- c&#45;&gt;d -->
<g id="edge3" class="edge">
<title>c&#45;&gt;d</title>
<path fill="none" stroke="#617c94" stroke-width="1.2" d="M102,-254.65C102,-246.84 102,-238.14 102,-229.9"/>
<polygon fill="#617c94" stroke="#617c94" stroke-width="1.2" points="104.63,-229.7 102,-222.2 99.38,-229.7 104.63,-229.7"/>
</g>
<!-- e -->
<g id="node5" class="node">
<title>e</title>
<path fill="#edf4f9" stroke="#a7bfd3" stroke-width="1.2" d="M160.5,-137C160.5,-137 43.5,-137 43.5,-137 37.5,-137 31.5,-131 31.5,-125 31.5,-125 31.5,-97 31.5,-97 31.5,-91 37.5,-85 43.5,-85 43.5,-85 160.5,-85 160.5,-85 166.5,-85 172.5,-91 172.5,-97 172.5,-97 172.5,-125 172.5,-125 172.5,-131 166.5,-137 160.5,-137"/>
<text text-anchor="middle" x="102" y="-116" font-family="Noto Sans CJK SC" font-size="15.00" fill="#17324d">执行获授权处置</text>
<text text-anchor="middle" x="102" y="-99" font-family="Noto Sans CJK SC" font-size="15.00" fill="#17324d">恢复 / 升级 / 回退</text>
</g>
<!-- d&#45;&gt;e -->
<g id="edge4" class="edge">
<title>d&#45;&gt;e</title>
<path fill="none" stroke="#617c94" stroke-width="1.2" d="M102,-169.65C102,-161.84 102,-153.14 102,-144.9"/>
<polygon fill="#617c94" stroke="#617c94" stroke-width="1.2" points="104.63,-144.7 102,-137.2 99.38,-144.7 104.63,-144.7"/>
</g>
<!-- f -->
<g id="node6" class="node">
<title>f</title>
<path fill="#edf4f9" stroke="#a7bfd3" stroke-width="1.2" d="M177,-52C177,-52 27,-52 27,-52 21,-52 15,-46 15,-40 15,-40 15,-12 15,-12 15,-6 21,0 27,0 27,0 177,0 177,0 183,0 189,-6 189,-12 189,-12 189,-40 189,-40 189,-46 183,-52 177,-52"/>
<text text-anchor="middle" x="102" y="-31" font-family="Noto Sans CJK SC" font-size="15.00" fill="#17324d">验收并交班</text>
<text text-anchor="middle" x="102" y="-14" font-family="Noto Sans CJK SC" font-size="15.00" fill="#17324d">结果 · 缺口 · 下一步</text>
</g>
<!-- e&#45;&gt;f -->
<g id="edge5" class="edge">
<title>e&#45;&gt;f</title>
<path fill="none" stroke="#617c94" stroke-width="1.2" d="M102,-84.65C102,-76.84 102,-68.14 102,-59.9"/>
<polygon fill="#617c94" stroke="#617c94" stroke-width="1.2" points="104.63,-59.7 102,-52.2 99.38,-59.7 104.63,-59.7"/>
</g>
</g>
</svg>
