<?xml version="1.0" encoding="UTF-8" standalone="no"?>
<!DOCTYPE svg PUBLIC "-//W3C//DTD SVG 1.1//EN"
 "http://www.w3.org/Graphics/SVG/1.1/DTD/svg11.dtd">
<!-- Generated by graphviz version 2.42.4 (0)
 -->
<!-- Title: G Pages: 1 -->
<svg width="233pt" height="617pt"
 viewBox="0.00 0.00 232.56 616.56" xmlns="http://www.w3.org/2000/svg" xmlns:xlink="http://www.w3.org/1999/xlink">
<g id="graph0" class="graph" transform="scale(1 1) rotate(0) translate(17.28 599.28)">
<title>G</title>
<polygon fill="#ffffff" stroke="transparent" points="-17.28,17.28 -17.28,-599.28 215.28,-599.28 215.28,17.28 -17.28,17.28"/>
<text text-anchor="middle" x="99" y="-562.8" font-family="Noto Sans CJK SC" font-size="19.00" fill="#102b46">测试层次与证据边界</text>
<!-- a -->
<g id="node1" class="node">
<title>a</title>
<path fill="#edf4f9" stroke="#a7bfd3" stroke-width="1.2" d="M163,-553C163,-553 35,-553 35,-553 29,-553 23,-547 23,-541 23,-541 23,-513 23,-513 23,-507 29,-501 35,-501 35,-501 163,-501 163,-501 169,-501 175,-507 175,-513 175,-513 175,-541 175,-541 175,-547 169,-553 163,-553"/>
<text text-anchor="middle" x="99" y="-532" font-family="Noto Sans CJK SC" font-size="15.00" fill="#17324d">文档和静态检查</text>
<text text-anchor="middle" x="99" y="-515" font-family="Noto Sans CJK SC" font-size="15.00" fill="#17324d">链接 · 类型 · diff</text>
</g>
<!-- b -->
<g id="node2" class="node">
<title>b</title>
<path fill="#edf4f9" stroke="#a7bfd3" stroke-width="1.2" d="M168,-466C168,-466 30,-466 30,-466 24,-466 18,-460 18,-454 18,-454 18,-426 18,-426 18,-420 24,-414 30,-414 30,-414 168,-414 168,-414 174,-414 180,-420 180,-426 180,-426 180,-454 180,-454 180,-460 174,-466 168,-466"/>
<text text-anchor="middle" x="99" y="-445" font-family="Noto Sans CJK SC" font-size="15.00" fill="#17324d">专项单元与恢复回归</text>
<text text-anchor="middle" x="99" y="-428" font-family="Noto Sans CJK SC" font-size="15.00" fill="#17324d">临时 Git + 故障注入</text>
</g>
<!-- a&#45;&gt;b -->
<g id="edge1" class="edge">
<title>a&#45;&gt;b</title>
<path fill="none" stroke="#617c94" stroke-width="1.2" d="M99,-500.96C99,-492.47 99,-482.87 99,-473.87"/>
<polygon fill="#617c94" stroke="#617c94" stroke-width="1.2" points="101.63,-473.66 99,-466.16 96.38,-473.66 101.63,-473.66"/>
</g>
<!-- c -->
<g id="node3" class="node">
<title>c</title>
<path fill="#edf4f9" stroke="#a7bfd3" stroke-width="1.2" d="M175.5,-379C175.5,-379 22.5,-379 22.5,-379 16.5,-379 10.5,-373 10.5,-367 10.5,-367 10.5,-339 10.5,-339 10.5,-333 16.5,-327 22.5,-327 22.5,-327 175.5,-327 175.5,-327 181.5,-327 187.5,-333 187.5,-339 187.5,-339 187.5,-367 187.5,-367 187.5,-373 181.5,-379 175.5,-379"/>
<text text-anchor="middle" x="99" y="-358" font-family="Noto Sans CJK SC" font-size="15.00" fill="#17324d">隔离 canary</text>
<text text-anchor="middle" x="99" y="-341" font-family="Noto Sans CJK SC" font-size="15.00" fill="#17324d">失败则不降低安全边界</text>
</g>
<!-- b&#45;&gt;c -->
<g id="edge2" class="edge">
<title>b&#45;&gt;c</title>
<path fill="none" stroke="#617c94" stroke-width="1.2" d="M99,-413.96C99,-405.47 99,-395.87 99,-386.87"/>
<polygon fill="#617c94" stroke="#617c94" stroke-width="1.2" points="101.63,-386.66 99,-379.16 96.38,-386.66 101.63,-386.66"/>
</g>
<!-- d -->
<g id="node4" class="node">
<title>d</title>
<path fill="#edf4f9" stroke="#a7bfd3" stroke-width="1.2" d="M167.5,-281C167.5,-281 30.5,-281 30.5,-281 24.5,-281 18.5,-275 18.5,-269 18.5,-269 18.5,-257 18.5,-257 18.5,-251 24.5,-245 30.5,-245 30.5,-245 167.5,-245 167.5,-245 173.5,-245 179.5,-251 179.5,-257 179.5,-257 179.5,-269 179.5,-269 179.5,-275 173.5,-281 167.5,-281"/>
<text text-anchor="middle" x="99" y="-259.5" font-family="Noto Sans CJK SC" font-size="15.00" fill="#17324d">完整后端 + 前端测试</text>
</g>
<!-- c&#45;&gt;d -->
<g id="edge3" class="edge">
<title>c&#45;&gt;d</title>
<path fill="none" stroke="#617c94" stroke-width="1.2" d="M99,-326.55C99,-314.67 99,-300.58 99,-288.79"/>
<polygon fill="#617c94" stroke="#617c94" stroke-width="1.2" points="101.63,-288.55 99,-281.05 96.38,-288.55 101.63,-288.55"/>
<text text-anchor="middle" x="122" y="-301.2" font-family="Noto Sans CJK SC" font-size="11.00" fill="#4a6379">前提通过</text>
</g>
<!-- e -->
<g id="node5" class="node">
<title>e</title>
<path fill="#edf4f9" stroke="#a7bfd3" stroke-width="1.2" d="M183.5,-210C183.5,-210 14.5,-210 14.5,-210 8.5,-210 2.5,-204 2.5,-198 2.5,-198 2.5,-186 2.5,-186 2.5,-180 8.5,-174 14.5,-174 14.5,-174 183.5,-174 183.5,-174 189.5,-174 195.5,-180 195.5,-186 195.5,-186 195.5,-198 195.5,-198 195.5,-204 189.5,-210 183.5,-210"/>
<text text-anchor="middle" x="99" y="-188.5" font-family="Noto Sans CJK SC" font-size="15.00" fill="#17324d">真实浏览器 / 容器 smoke</text>
</g>
<!-- d&#45;&gt;e -->
<g id="edge4" class="edge">
<title>d&#45;&gt;e</title>
<path fill="none" stroke="#617c94" stroke-width="1.2" d="M99,-244.94C99,-236.8 99,-226.88 99,-217.91"/>
<polygon fill="#617c94" stroke="#617c94" stroke-width="1.2" points="101.63,-217.84 99,-210.34 96.38,-217.84 101.63,-217.84"/>
</g>
<!-- f -->
<g id="node6" class="node">
<title>f</title>
<path fill="#edf4f9" stroke="#a7bfd3" stroke-width="1.2" d="M186,-139C186,-139 12,-139 12,-139 6,-139 0,-133 0,-127 0,-127 0,-99 0,-99 0,-93 6,-87 12,-87 12,-87 186,-87 186,-87 192,-87 198,-93 198,-99 198,-99 198,-127 198,-127 198,-133 192,-139 186,-139"/>
<text text-anchor="middle" x="99" y="-118" font-family="Noto Sans CJK SC" font-size="15.00" fill="#17324d">真实 Provider 和生产配置</text>
<text text-anchor="middle" x="99" y="-101" font-family="Noto Sans CJK SC" font-size="15.00" fill="#17324d">需账号、授权与现场条件</text>
</g>
<!-- e&#45;&gt;f -->
<g id="edge5" class="edge">
<title>e&#45;&gt;f</title>
<path fill="none" stroke="#617c94" stroke-width="1.2" d="M99,-173.91C99,-165.95 99,-156.2 99,-146.89"/>
<polygon fill="#617c94" stroke="#617c94" stroke-width="1.2" points="101.63,-146.73 99,-139.23 96.38,-146.73 101.63,-146.73"/>
</g>
<!-- g -->
<g id="node7" class="node">
<title>g</title>
<path fill="#edf4f9" stroke="#a7bfd3" stroke-width="1.2" d="M178.5,-52C178.5,-52 19.5,-52 19.5,-52 13.5,-52 7.5,-46 7.5,-40 7.5,-40 7.5,-12 7.5,-12 7.5,-6 13.5,0 19.5,0 19.5,0 178.5,0 178.5,0 184.5,0 190.5,-6 190.5,-12 190.5,-12 190.5,-40 190.5,-40 190.5,-46 184.5,-52 178.5,-52"/>
<text text-anchor="middle" x="99" y="-31" font-family="Noto Sans CJK SC" font-size="15.00" fill="#17324d">验收记录</text>
<text text-anchor="middle" x="99" y="-14" font-family="Noto Sans CJK SC" font-size="15.00" fill="#17324d">通过 / 失败 / 阻塞 / 未测</text>
</g>
<!-- f&#45;&gt;g -->
<g id="edge6" class="edge">
<title>f&#45;&gt;g</title>
<path fill="none" stroke="#617c94" stroke-width="1.2" d="M99,-86.96C99,-78.47 99,-68.87 99,-59.87"/>
<polygon fill="#617c94" stroke="#617c94" stroke-width="1.2" points="101.63,-59.66 99,-52.16 96.38,-59.66 101.63,-59.66"/>
</g>
</g>
</svg>
